name rise30.8019peak61.5557fall86.2505.mot
datacolumns 19
datarows 30
range 18.81494200000000 18.86326500000000
endheader
time	ground_force1_vx	ground_force1_vy	ground_force1_vz	ground_force1_px	ground_force1_py	ground_force1_pz	ground_force2_vx	ground_force2_vy	ground_force2_vz	ground_force2_px	ground_force2_py	ground_force2_pz	ground_torque1_x	ground_torque1_y	ground_torque1_z	ground_torque2_x	ground_torque2_y	ground_torque2_z	
18.81494200000000	49.75029000000000	748.66488600000002	40.52401100000000	0.23786600000000	0.00000000000000	0.10248700000000	0.00000000000000	0.00000000000000	0.00000000000000	0.00000000000000	0.00000000000000	0.00000000000000	0.00000000000000	9.25162600000000	0.00000000000000	0.00000000000000	0.00000000000000	0.00000000000000	
18.81659500000000	49.01738200000000	749.53098299999999	40.73164800000000	0.23670900000000	0.00000000000000	0.10252700000000	0.00000000000000	0.00000000000000	0.00000000000000	0.00000000000000	0.00000000000000	0.00000000000000	0.00000000000000	9.39549000000000	0.00000000000000	0.00000000000000	0.00000000000000	0.00000000000000	
18.81826500000000	48.28046000000000	750.25697900000000	40.93372500000000	0.23553800000000	0.00000000000000	0.10256800000000	0.00000000000000	0.00000000000000	0.00000000000000	0.00000000000000	0.00000000000000	0.00000000000000	0.00000000000000	9.53713400000000	0.00000000000000	0.00000000000000	0.00000000000000	0.00000000000000	
18.81993400000000	47.53963800000000	750.84429899999998	41.12944200000000	0.23435200000000	0.00000000000000	0.10261000000000	0.00000000000000	0.00000000000000	0.00000000000000	0.00000000000000	0.00000000000000	0.00000000000000	0.00000000000000	9.67615600000000	0.00000000000000	0.00000000000000	0.00000000000000	0.00000000000000	
18.82159700000000	46.79503700000000	751.29460300000005	41.31799600000000	0.23315000000000	0.00000000000000	0.10265200000000	0.00000000000000	0.00000000000000	0.00000000000000	0.00000000000000	0.00000000000000	0.00000000000000	0.00000000000000	9.81215600000000	0.00000000000000	0.00000000000000	0.00000000000000	0.00000000000000	
18.82326700000000	46.04678400000000	751.60978599999999	41.49858400000000	0.23193200000000	0.00000000000000	0.10269500000000	0.00000000000000	0.00000000000000	0.00000000000000	0.00000000000000	0.00000000000000	0.00000000000000	0.00000000000000	9.94474100000000	0.00000000000000	0.00000000000000	0.00000000000000	0.00000000000000	
18.82493500000000	45.29501400000000	751.79197399999998	41.67040600000000	0.23069700000000	0.00000000000000	0.10273900000000	0.00000000000000	0.00000000000000	0.00000000000000	0.00000000000000	0.00000000000000	0.00000000000000	0.00000000000000	10.07352700000000	0.00000000000000	0.00000000000000	0.00000000000000	0.00000000000000	
18.82659600000000	44.53987600000000	751.84351800000002	41.83267600000000	0.22944400000000	0.00000000000000	0.10278300000000	0.00000000000000	0.00000000000000	0.00000000000000	0.00000000000000	0.00000000000000	0.00000000000000	0.00000000000000	10.19814000000000	0.00000000000000	0.00000000000000	0.00000000000000	0.00000000000000	
18.82826200000000	43.78153200000000	751.76699499999995	41.98462200000000	0.22817400000000	0.00000000000000	0.10282800000000	0.00000000000000	0.00000000000000	0.00000000000000	0.00000000000000	0.00000000000000	0.00000000000000	0.00000000000000	10.31822000000000	0.00000000000000	0.00000000000000	0.00000000000000	0.00000000000000	
18.82993600000000	43.02016000000000	751.56519800000001	42.12549500000000	0.22688500000000	0.00000000000000	0.10287300000000	0.00000000000000	0.00000000000000	0.00000000000000	0.00000000000000	0.00000000000000	0.00000000000000	0.00000000000000	10.43342100000000	0.00000000000000	0.00000000000000	0.00000000000000	0.00000000000000	
18.83159900000000	42.25595700000000	751.24113299999999	42.25456700000000	0.22557900000000	0.00000000000000	0.10291800000000	0.00000000000000	0.00000000000000	0.00000000000000	0.00000000000000	0.00000000000000	0.00000000000000	0.00000000000000	10.54341600000000	0.00000000000000	0.00000000000000	0.00000000000000	0.00000000000000	
18.83326300000000	41.48913700000000	750.79800699999998	42.37114700000000	0.22425400000000	0.00000000000000	0.10296300000000	0.00000000000000	0.00000000000000	0.00000000000000	0.00000000000000	0.00000000000000	0.00000000000000	0.00000000000000	10.64789500000000	0.00000000000000	0.00000000000000	0.00000000000000	0.00000000000000	
18.83493000000000	40.71993800000000	750.23922700000003	42.47457200000000	0.22291100000000	0.00000000000000	0.10300900000000	0.00000000000000	0.00000000000000	0.00000000000000	0.00000000000000	0.00000000000000	0.00000000000000	0.00000000000000	10.74657300000000	0.00000000000000	0.00000000000000	0.00000000000000	0.00000000000000	
18.83660200000000	39.94861700000000	749.56838700000003	42.56422400000000	0.22155000000000	0.00000000000000	0.10305400000000	0.00000000000000	0.00000000000000	0.00000000000000	0.00000000000000	0.00000000000000	0.00000000000000	0.00000000000000	10.83918500000000	0.00000000000000	0.00000000000000	0.00000000000000	0.00000000000000	
18.83826600000000	39.17545600000000	748.78926000000001	42.63952500000000	0.22017200000000	0.00000000000000	0.10309800000000	0.00000000000000	0.00000000000000	0.00000000000000	0.00000000000000	0.00000000000000	0.00000000000000	0.00000000000000	10.92549200000000	0.00000000000000	0.00000000000000	0.00000000000000	0.00000000000000	
18.83993400000000	38.40075900000000	747.90578800000003	42.69994500000000	0.21877600000000	0.00000000000000	0.10314300000000	0.00000000000000	0.00000000000000	0.00000000000000	0.00000000000000	0.00000000000000	0.00000000000000	0.00000000000000	11.00528000000000	0.00000000000000	0.00000000000000	0.00000000000000	0.00000000000000	
18.84159900000000	37.62485300000000	746.92207399999995	42.74500600000000	0.21736500000000	0.00000000000000	0.10318600000000	0.00000000000000	0.00000000000000	0.00000000000000	0.00000000000000	0.00000000000000	0.00000000000000	0.00000000000000	11.07836200000000	0.00000000000000	0.00000000000000	0.00000000000000	0.00000000000000	
18.84326800000000	36.84809100000000	745.84236599999997	42.77428100000000	0.21593700000000	0.00000000000000	0.10323000000000	0.00000000000000	0.00000000000000	0.00000000000000	0.00000000000000	0.00000000000000	0.00000000000000	0.00000000000000	11.14458200000000	0.00000000000000	0.00000000000000	0.00000000000000	0.00000000000000	
18.84493100000000	36.07084600000000	744.67105400000003	42.78740200000000	0.21449400000000	0.00000000000000	0.10327200000000	0.00000000000000	0.00000000000000	0.00000000000000	0.00000000000000	0.00000000000000	0.00000000000000	0.00000000000000	11.20380800000000	0.00000000000000	0.00000000000000	0.00000000000000	0.00000000000000	
18.84659700000000	35.29351700000000	743.41264999999999	42.78406200000000	0.21303800000000	0.00000000000000	0.10331400000000	0.00000000000000	0.00000000000000	0.00000000000000	0.00000000000000	0.00000000000000	0.00000000000000	0.00000000000000	11.25594000000000	0.00000000000000	0.00000000000000	0.00000000000000	0.00000000000000	
18.84826000000000	34.51652300000000	742.07177999999999	42.76401200000000	0.21156800000000	0.00000000000000	0.10335400000000	0.00000000000000	0.00000000000000	0.00000000000000	0.00000000000000	0.00000000000000	0.00000000000000	0.00000000000000	11.30090900000000	0.00000000000000	0.00000000000000	0.00000000000000	0.00000000000000	
18.84993200000000	33.74030400000000	740.65317300000004	42.72707000000000	0.21008600000000	0.00000000000000	0.10339300000000	0.00000000000000	0.00000000000000	0.00000000000000	0.00000000000000	0.00000000000000	0.00000000000000	0.00000000000000	11.33867300000000	0.00000000000000	0.00000000000000	0.00000000000000	0.00000000000000	
18.85159800000000	32.96532100000000	739.16164400000002	42.67311700000000	0.20859300000000	0.00000000000000	0.10343200000000	0.00000000000000	0.00000000000000	0.00000000000000	0.00000000000000	0.00000000000000	0.00000000000000	0.00000000000000	11.36922200000000	0.00000000000000	0.00000000000000	0.00000000000000	0.00000000000000	
18.85327700000000	32.19205300000000	737.60208699999998	42.60210300000000	0.20709100000000	0.00000000000000	0.10346800000000	0.00000000000000	0.00000000000000	0.00000000000000	0.00000000000000	0.00000000000000	0.00000000000000	0.00000000000000	11.39257500000000	0.00000000000000	0.00000000000000	0.00000000000000	0.00000000000000	
18.85493200000000	31.42099500000000	735.97945700000002	42.51404300000000	0.20558100000000	0.00000000000000	0.10350400000000	0.00000000000000	0.00000000000000	0.00000000000000	0.00000000000000	0.00000000000000	0.00000000000000	0.00000000000000	11.40877900000000	0.00000000000000	0.00000000000000	0.00000000000000	0.00000000000000	
18.85660000000000	30.65265800000000	734.29875900000002	42.40902200000000	0.20406400000000	0.00000000000000	0.10353700000000	0.00000000000000	0.00000000000000	0.00000000000000	0.00000000000000	0.00000000000000	0.00000000000000	0.00000000000000	11.41791100000000	0.00000000000000	0.00000000000000	0.00000000000000	0.00000000000000	
18.85826400000000	29.88756600000000	732.56503799999996	42.28719100000000	0.20254300000000	0.00000000000000	0.10356900000000	0.00000000000000	0.00000000000000	0.00000000000000	0.00000000000000	0.00000000000000	0.00000000000000	0.00000000000000	11.42007600000000	0.00000000000000	0.00000000000000	0.00000000000000	0.00000000000000	
18.85992800000000	29.12625200000000	730.78335800000002	42.14876900000000	0.20101700000000	0.00000000000000	0.10360000000000	0.00000000000000	0.00000000000000	0.00000000000000	0.00000000000000	0.00000000000000	0.00000000000000	0.00000000000000	11.41540400000000	0.00000000000000	0.00000000000000	0.00000000000000	0.00000000000000	
18.86159700000000	28.36925900000000	728.95879800000000	41.99404300000000	0.19948900000000	0.00000000000000	0.10362800000000	0.00000000000000	0.00000000000000	0.00000000000000	0.00000000000000	0.00000000000000	0.00000000000000	0.00000000000000	11.40405200000000	0.00000000000000	0.00000000000000	0.00000000000000	0.00000000000000	
18.86326500000000	27.61713400000000	727.09643500000004	41.82336500000000	0.19796200000000	0.00000000000000	0.10365400000000	0.00000000000000	0.00000000000000	0.00000000000000	0.00000000000000	0.00000000000000	0.00000000000000	0.00000000000000	11.38620100000000	0.00000000000000	0.00000000000000	0.00000000000000	0.00000000000000	
